# xmcd
#
# Track frame offsets: 
#        150
#        24716
#        39537
#        64131
#        104029
#        152725
#        174665
#        204895
#        235111
#        256159
#        270221
#        290148
#        303165
#        304876
#        306378
#
# Disc length: 4330 seconds
#
# Revision: 0
# Processed by: cddbd v1.5.2PL0 Copyright (c) Steve Scherf et al.
# Submitted via: ExactAudioCopy v1.3
#
DISCID=d010e80f
DTITLE=Buddy Guy and Otis Rush - Live At The Chicago Blues Festi
DYEAR=1988
DGENRE=Chicago Blues
TTITLE0=All Your Love
TTITLE1=Buddy Guy Intro Jam
TTITLE2=Crosscut Saw
TTITLE3=Five Long Years
TTITLE4=Gambler's Blues
TTITLE5=I Smell A Rat~
TTITLE6=I Wonder Why (Inst.)
TTITLE7=I'm A Man (Inst.)
TTITLE8=Inst. Intro Jam
TTITLE9=Inst
TTITLE10=Look On~ Yonder Wall
TTITLE11=Post Show Interview W~buddy Guy
TTITLE12=Stage Intro
TTITLE13=Stage Outro-
TTITLE14=Things (That) I Used To Do
EXTD=
EXTT0=
EXTT1=
EXTT2=
EXTT3=
EXTT4=
EXTT5=
EXTT6=
EXTT7=
EXTT8=
EXTT9=
EXTT10=
EXTT11=
EXTT12=
EXTT13=
EXTT14=
PLAYORDER=
